<svg width="112" height="32" viewBox="0 0 112 32" fill="none" xmlns="http://www.w3.org/2000/svg">
<path d="M14.5335 4.57764e-05C22.56 0.000106625 29.0669 7.3948 29.0669 16.5164C29.0669 23.6129 25.1278 29.6631 19.5993 32C22.905 30.2773 25.1488 26.9213 25.1488 23.0632C25.1488 17.4478 20.3959 12.8953 14.533 12.8953C8.67015 12.8953 3.91723 17.4478 3.91723 23.0632C3.91727 26.9197 6.15925 30.2744 9.46268 31.9978C3.93676 29.6593 7.13319e-05 23.6108 0 16.5164C0 7.39476 6.50691 4.57764e-05 14.5335 4.57764e-05Z" fill="#242424"/>
<path d="M35.8139 23.8839H33.9356L39.5079 9.27482H41.6575L47.209 23.8839H45.2681L43.7237 19.9395H37.3583L35.8139 23.8839ZM40.5305 11.2575L37.9009 18.2907H43.181L40.5305 11.2575ZM49.929 23.8839L45.9428 13.2401H47.7793L50.9933 21.943L54.1865 13.2401H55.9813L51.9951 23.8839H49.929ZM61.0684 24.0092C57.9588 24.0092 55.7883 21.7969 55.7883 18.562C55.7883 15.3272 57.9588 13.1149 61.0684 13.1149C64.1781 13.1149 66.3486 15.3272 66.3486 18.562C66.3486 21.7969 64.1781 24.0092 61.0684 24.0092ZM61.0684 22.4856C63.1763 22.4856 64.5955 20.8369 64.5955 18.562C64.5955 16.2872 63.1763 14.6384 61.0684 14.6384C58.9605 14.6384 57.5413 16.2872 57.5413 18.562C57.5413 20.8369 58.9605 22.4856 61.0684 22.4856ZM67.6849 23.8839V9.27482H69.3962V18.896L74.739 13.2401H76.8469L72.6937 17.6438L77.1391 23.8839H75.0729L71.5459 18.8751L69.3962 21.0873V23.8839H67.6849ZM86.8452 22.3187H87.3878V23.8839H86.4486C85.0295 23.8839 84.5495 23.2787 84.5286 22.2352C83.8607 23.1952 82.7964 24.0092 80.9598 24.0092C78.6223 24.0092 77.0362 22.8404 77.0362 20.8995C77.0362 18.7707 78.518 17.5811 81.3146 17.5811H84.4451V16.8507C84.4451 15.4733 83.4642 14.6384 81.7946 14.6384C80.2919 14.6384 79.2902 15.348 79.0815 16.4333H77.3701C77.6206 14.3463 79.311 13.1149 81.8781 13.1149C84.5912 13.1149 86.1565 14.4715 86.1565 16.955V21.6091C86.1565 22.1726 86.3652 22.3187 86.8452 22.3187ZM84.4451 19.5429V19.0212H81.1476C79.6241 19.0212 78.7684 19.5847 78.7684 20.7951C78.7684 21.8387 79.6658 22.5482 81.085 22.5482C83.2138 22.5482 84.4451 21.3169 84.4451 19.5429ZM96.3448 14.868V9.27482H98.0562V23.8839H96.5744L96.3448 22.1726C95.6353 23.1535 94.4874 24.0092 92.6926 24.0092C89.7499 24.0092 87.5794 22.0265 87.5794 18.562C87.5794 15.3063 89.7499 13.1149 92.6926 13.1149C94.4874 13.1149 95.6979 13.8454 96.3448 14.868ZM92.8595 22.4856C94.9465 22.4856 96.3657 20.8786 96.3657 18.6038C96.3657 16.2663 94.9465 14.6384 92.8595 14.6384C90.7516 14.6384 89.3325 16.2455 89.3325 18.562C89.3325 20.8786 90.7516 22.4856 92.8595 22.4856ZM104.666 24.0092C101.556 24.0092 99.3857 21.7969 99.3857 18.562C99.3857 15.3272 101.556 13.1149 104.666 13.1149C107.775 13.1149 109.946 15.3272 109.946 18.562C109.946 21.7969 107.775 24.0092 104.666 24.0092ZM104.666 22.4856C106.774 22.4856 108.193 20.8369 108.193 18.562C108.193 16.2872 106.774 14.6384 104.666 14.6384C102.558 14.6384 101.139 16.2872 101.139 18.562C101.139 20.8369 102.558 22.4856 104.666 22.4856Z" fill="#242424"/>
</svg>
